<svg width="21" height="24" viewBox="0 0 21 24" fill="none" xmlns="http://www.w3.org/2000/svg">
<g clip-path="url(#clip0_19378_905)">
<path d="M12.77 1.10903C12.7057 0.795907 12.5346 0.514481 12.2856 0.312385C12.0367 0.110289 11.7251 -6.51974e-05 11.4037 2.88982e-08H1.3941C1.02436 2.88982e-08 0.669768 0.146055 0.408323 0.406035C0.146878 0.666015 0 1.01862 0 1.38629V22.1807C0 22.5483 0.146878 22.9009 0.408323 23.1609C0.669768 23.4209 1.02436 23.5669 1.3941 23.5669C1.76384 23.5669 2.11843 23.4209 2.37988 23.1609C2.64132 22.9009 2.7882 22.5483 2.7882 22.1807V13.8629H10.5952L10.9298 15.5265C11.0552 16.1752 11.631 16.6424 12.296 16.6355H19.5174C19.8872 16.6355 20.2417 16.4894 20.5032 16.2295C20.7646 15.9695 20.9115 15.6169 20.9115 15.2492V4.15887C20.9115 3.79121 20.7646 3.4386 20.5032 3.17862C20.2417 2.91864 19.8872 2.77258 19.5174 2.77258H13.1045L12.77 1.10903Z" fill="#699BF7"/>
<path fill-rule="evenodd" clip-rule="evenodd" d="M11.2816 16.6279C11.0327 16.4335 10.8616 16.1627 10.7973 15.8615L10.4627 14.2611H1.39442C1.02468 14.2611 0.670088 14.1206 0.408644 13.8705C0.1472 13.6204 0.000322342 13.2812 0.000322342 12.9275V9.62586H20.9118V15.5948C20.9118 15.9485 20.765 16.2877 20.5035 16.5378C20.2421 16.7879 19.8875 16.9284 19.5177 16.9284H12.1635C11.8421 16.9285 11.5306 16.8223 11.2816 16.6279Z" fill="#EFF238"/>
</g>
<defs>
<clipPath id="clip0_19378_905">
<rect width="20.9118" height="23.5669" fill="white"/>
</clipPath>
</defs>
</svg>
