<svg width="54" height="55" viewBox="0 0 54 55" fill="none" xmlns="http://www.w3.org/2000/svg">
<g clip-path="url(#clip0_19507_1068)">
<path d="M13.693 54.309C10.4816 54.163 8.73706 53.6285 7.57672 53.176C6.03923 52.5773 4.94309 51.8648 3.78916 50.7124C2.63524 49.5601 1.92106 48.464 1.32565 46.9265C0.873064 45.7661 0.338633 44.0216 0.192588 40.8102C0.032098 37.3388 0 36.2972 0 27.5024C0 18.7076 0.0353078 17.6676 0.190983 14.193C0.337029 10.9816 0.874669 9.24027 1.32404 8.07672C1.92267 6.53923 2.63685 5.44309 3.78756 4.28756C4.93988 3.13524 6.03602 2.41946 7.57512 1.82404C8.73546 1.37146 10.48 0.837029 13.6914 0.690983C17.1644 0.532098 18.2076 0.5 26.9992 0.5C35.794 0.5 36.834 0.535308 40.3086 0.690983C43.52 0.837029 45.2613 1.37467 46.4249 1.82404C47.9624 2.41946 49.0585 3.13524 50.2124 4.28756C51.3664 5.43988 52.0773 6.53763 52.676 8.07512C53.1285 9.23546 53.663 10.98 53.809 14.1914C53.9679 17.666 54 18.706 54 27.5008C54 36.2924 53.9679 37.3356 53.809 40.8102C53.663 44.0216 53.1253 45.7661 52.676 46.9265C52.0773 48.464 51.3648 49.5601 50.2124 50.7124C49.0601 51.8648 47.9624 52.5773 46.4249 53.176C45.2645 53.6285 43.52 54.163 40.3086 54.309C36.8372 54.4679 35.794 54.5 26.9992 54.5C18.2076 54.5 17.1644 54.4695 13.693 54.309" fill="url(#paint0_radial_19507_1068)"/>
<path d="M13.693 54.309C10.4816 54.163 8.73706 53.6285 7.57672 53.176C6.03923 52.5773 4.94309 51.8648 3.78916 50.7124C2.63524 49.5601 1.92106 48.464 1.32565 46.9265C0.873064 45.7661 0.338633 44.0216 0.192588 40.8102C0.032098 37.3388 0 36.2972 0 27.5024C0 18.7076 0.0353078 17.6676 0.190983 14.193C0.337029 10.9816 0.874669 9.24027 1.32404 8.07672C1.92267 6.53923 2.63685 5.44309 3.78756 4.28756C4.93988 3.13524 6.03602 2.41946 7.57512 1.82404C8.73546 1.37146 10.48 0.837029 13.6914 0.690983C17.1644 0.532098 18.2076 0.5 26.9992 0.5C35.794 0.5 36.834 0.535308 40.3086 0.690983C43.52 0.837029 45.2613 1.37467 46.4249 1.82404C47.9624 2.41946 49.0585 3.13524 50.2124 4.28756C51.3664 5.43988 52.0773 6.53763 52.676 8.07512C53.1285 9.23546 53.663 10.98 53.809 14.1914C53.9679 17.666 54 18.706 54 27.5008C54 36.2924 53.9679 37.3356 53.809 40.8102C53.663 44.0216 53.1253 45.7661 52.676 46.9265C52.0773 48.464 51.3648 49.5601 50.2124 50.7124C49.0601 51.8648 47.9624 52.5773 46.4249 53.176C45.2645 53.6285 43.52 54.163 40.3086 54.309C36.8372 54.4679 35.794 54.5 26.9992 54.5C18.2076 54.5 17.1644 54.4695 13.693 54.309" fill="url(#paint1_radial_19507_1068)"/>
<path d="M20.3702 27.6151C20.3702 23.922 23.3631 20.9274 27.0562 20.9274C30.7492 20.9274 33.7438 23.922 33.7438 27.6151C33.7438 31.3081 30.7492 34.3027 27.0562 34.3027C23.3631 34.3027 20.3702 31.3081 20.3702 27.6151M16.755 27.6151C16.755 33.3044 21.3668 37.9163 27.0562 37.9163C32.7455 37.9163 37.3574 33.3044 37.3574 27.6151C37.3574 21.9257 32.7455 17.3139 27.0562 17.3139C21.3668 17.3139 16.7551 21.9254 16.7551 27.6151M35.358 16.9054C35.3578 17.3815 35.4988 17.847 35.7632 18.243C36.0275 18.639 36.4034 18.9477 36.8432 19.1301C37.283 19.3125 37.767 19.3604 38.234 19.2677C38.701 19.175 39.1301 18.9458 39.4669 18.6093C39.8037 18.2728 40.0332 17.8439 40.1262 17.377C40.2193 16.91 40.1718 16.426 39.9898 15.986C39.8078 15.5461 39.4994 15.17 39.1036 14.9053C38.7078 14.6406 38.2424 14.4992 37.7663 14.499H37.7653C37.1271 14.4993 36.5151 14.7529 36.0637 15.2041C35.6124 15.6553 35.3585 16.2672 35.358 16.9054M18.9514 43.9446C16.9955 43.8555 15.9325 43.5297 15.226 43.2545C14.2894 42.8898 13.6211 42.4556 12.9185 41.7539C12.2158 41.0522 11.7809 40.3846 11.4179 39.448C11.1425 38.7418 10.8167 37.6784 10.7278 35.7225C10.6305 33.6079 10.6111 32.9727 10.6111 27.6154C10.6111 22.2581 10.6321 21.6246 10.7278 19.5082C10.8168 17.5523 11.145 16.491 11.4179 15.7828C11.7825 14.8462 12.2168 14.1779 12.9185 13.4753C13.6201 12.7726 14.2878 12.3377 15.226 11.9747C15.9321 11.6993 16.9955 11.3735 18.9514 11.2846C21.066 11.1873 21.7013 11.1679 27.0562 11.1679C32.4111 11.1679 33.0469 11.1886 35.1633 11.2849C37.1192 11.374 38.1805 11.7022 38.8888 11.975C39.8254 12.338 40.4936 12.7739 41.1963 13.4756C41.8989 14.1772 42.3322 14.8465 42.6969 15.7831C42.9723 16.4893 43.298 17.5527 43.387 19.5086C43.4842 21.6249 43.5036 22.2584 43.5036 27.6157C43.5036 32.973 43.4842 33.6065 43.387 35.7228C43.2979 37.6787 42.9705 38.7418 42.6969 39.4483C42.3322 40.3849 41.8979 41.0532 41.1963 41.7542C40.4946 42.4552 39.8254 42.8902 38.8888 43.2548C38.1826 43.5302 37.1192 43.856 35.1633 43.9449C33.0487 44.0422 32.4135 44.0616 27.0562 44.0616C21.6988 44.0616 21.0654 44.0422 18.9514 43.9449M18.7853 7.67532C16.6497 7.77258 15.1903 8.11121 13.9159 8.60713C12.5968 9.11925 11.4787 9.80631 10.3622 10.9211C9.24564 12.0358 8.56035 13.1541 8.04823 14.4748C7.55232 15.75 7.21368 17.2086 7.11642 19.3442C7.01756 21.4832 6.99493 22.1671 6.99493 27.6151C6.99493 33.063 7.01756 33.7469 7.11642 35.8859C7.21368 38.0217 7.55232 39.4801 8.04823 40.7553C8.56035 42.0744 9.2458 43.1948 10.3622 44.309C11.4785 45.4233 12.5952 46.1094 13.9159 46.623C15.1928 47.1189 16.6497 47.4575 18.7853 47.5548C20.9254 47.6521 21.6082 47.6763 27.0562 47.6763C32.5041 47.6763 33.188 47.6537 35.327 47.5548C37.4628 47.4575 38.9212 47.1189 40.1964 46.623C41.5155 46.1094 42.6336 45.4238 43.7501 44.309C44.8667 43.1943 45.5505 42.0744 46.0641 40.7553C46.56 39.4801 46.9002 38.0215 46.9959 35.8859C47.0932 33.7453 47.1158 33.063 47.1158 27.6151C47.1158 22.1671 47.0932 21.4832 46.9959 19.3442C46.8986 17.2084 46.56 15.7492 46.0641 14.4748C45.5505 13.1557 44.8649 12.0376 43.7501 10.9211C42.6354 9.80454 41.5155 9.11925 40.198 8.60713C38.9212 8.11121 37.4626 7.77098 35.3286 7.67532C33.1893 7.57759 32.5058 7.55383 27.0586 7.55383C21.6114 7.55383 20.9263 7.57646 18.7861 7.67532" fill="white"/>
</g>
<defs>
<radialGradient id="paint0_radial_19507_1068" cx="0" cy="0" r="1" gradientUnits="userSpaceOnUse" gradientTransform="translate(3.49482 53.317) scale(68.56)">
<stop offset="0.09" stop-color="#FA8F21"/>
<stop offset="0.78" stop-color="#D82D7E"/>
</radialGradient>
<radialGradient id="paint1_radial_19507_1068" cx="0" cy="0" r="1" gradientUnits="userSpaceOnUse" gradientTransform="translate(37.4039 51.5831) scale(60.3334)">
<stop offset="0.64" stop-color="#8C3AAA" stop-opacity="0"/>
<stop offset="1" stop-color="#8C3AAA"/>
</radialGradient>
<clipPath id="clip0_19507_1068">
<rect width="54" height="54" fill="white" transform="translate(0 0.5)"/>
</clipPath>
</defs>
</svg>
