<svg width="57" height="57" viewBox="0 0 57 57" fill="none" xmlns="http://www.w3.org/2000/svg">
<g clip-path="url(#clip0_19378_916)">
<path d="M57 28.5C57 12.76 44.24 0 28.5 0C12.76 0 0 12.7598 0 28.5C0 42.7251 10.4221 54.5158 24.0469 56.6538V36.7383H16.8105V28.5H24.0469V22.2211C24.0469 15.0783 28.3018 11.1328 34.8116 11.1328C37.9299 11.1328 41.1914 11.6895 41.1914 11.6895V18.7031H37.5977C34.0571 18.7031 32.9531 20.9001 32.9531 23.154V28.5H40.8574L39.5938 36.7383H32.9531V56.6538C46.5779 54.5158 57 42.7253 57 28.5Z" fill="#1877F2"/>
<path d="M39.5938 36.7383L40.8574 28.5H32.9531V23.154C32.9531 20.8999 34.0573 18.7031 37.5977 18.7031H41.1914V11.6895C41.1914 11.6895 37.9299 11.1328 34.8116 11.1328C28.3018 11.1328 24.0469 15.0783 24.0469 22.2211V28.5H16.8105V36.7383H24.0469V56.6538C25.52 56.8846 27.0089 57.0004 28.5 57C29.9911 57.0004 31.48 56.8847 32.9531 56.6538V36.7383H39.5938Z" fill="white"/>
</g>
<defs>
<clipPath id="clip0_19378_916">
<rect width="57" height="57" fill="white"/>
</clipPath>
</defs>
</svg>
