<svg width="57" height="57" viewBox="0 0 57 57" fill="none" xmlns="http://www.w3.org/2000/svg">
<g clip-path="url(#clip0_19378_921)">
<path d="M28.5 0C20.943 0 13.6889 3.00452 8.34961 8.34738C3.0048 13.6924 0.00148053 20.9412 0 28.5C0 36.0556 3.00586 43.3098 8.34961 48.6526C13.6889 53.9955 20.943 57 28.5 57C36.057 57 43.3111 53.9955 48.6504 48.6526C53.9941 43.3098 57 36.0556 57 28.5C57 20.9444 53.9941 13.6902 48.6504 8.34738C43.3111 3.00452 36.057 0 28.5 0Z" fill="url(#paint0_linear_19378_921)"/>
<path d="M12.9007 28.199C21.2102 24.5795 26.7499 22.193 29.5198 21.0401C37.4374 17.7479 39.0806 17.1762 40.1538 17.1568C40.3898 17.153 40.9153 17.2113 41.2582 17.4885C41.5432 17.7223 41.6233 18.0385 41.6634 18.2605C41.699 18.4823 41.748 18.9877 41.708 19.3822C41.2805 23.8888 39.4235 34.8248 38.4794 39.8724C38.0831 42.0081 37.2949 42.7242 36.5334 42.7941C34.8769 42.9464 33.6211 41.7004 32.018 40.6499C29.5108 39.0054 28.0948 37.982 25.6589 36.3776C22.8445 34.5233 24.6703 33.504 26.2734 31.8385C26.692 31.4026 33.9862 24.7696 34.1243 24.168C34.1421 24.0927 34.1599 23.8122 33.9907 23.6644C33.8259 23.5161 33.581 23.5668 33.4029 23.6069C33.149 23.6639 29.1457 26.3126 21.3794 31.5526C20.2439 32.3337 19.2152 32.7144 18.289 32.6944C17.2737 32.6726 15.3143 32.1191 13.8581 31.6461C12.0769 31.0659 10.6563 30.7591 10.781 29.7736C10.8433 29.2606 11.5514 28.7356 12.9007 28.199Z" fill="white"/>
</g>
<defs>
<linearGradient id="paint0_linear_19378_921" x1="28.5" y1="0" x2="28.5" y2="57" gradientUnits="userSpaceOnUse">
<stop stop-color="#2AABEE"/>
<stop offset="1" stop-color="#229ED9"/>
</linearGradient>
<clipPath id="clip0_19378_921">
<rect width="57" height="57" fill="white"/>
</clipPath>
</defs>
</svg>
