<svg width="57" height="47" viewBox="0 0 57 47" fill="none" xmlns="http://www.w3.org/2000/svg">
<g clip-path="url(#clip0_19378_919)">
<path d="M56.9995 5.72317C54.8651 6.67818 52.6012 7.30505 50.283 7.58293C52.6976 6.12121 54.5517 3.80651 55.4247 1.04858C53.1293 2.42437 50.6179 3.39369 47.999 3.91468C45.8658 1.61933 42.8268 0.184814 39.4632 0.184814C33.0049 0.184814 27.7688 5.4731 27.7688 11.9955C27.7688 12.9214 27.8723 13.8227 28.0716 14.6874C18.3528 14.1946 9.73614 9.49261 3.96832 2.34681C2.96193 4.09121 2.38526 6.12031 2.38526 8.28456C2.38526 12.3823 4.44992 15.9973 7.58754 18.1154C5.7305 18.0567 3.91432 17.5501 2.29063 16.638C2.28996 16.6874 2.28996 16.7369 2.28996 16.7866C2.28996 22.5091 6.32087 27.2829 11.6703 28.3679C9.9483 28.841 8.14201 28.9102 6.38945 28.5703C7.87743 33.2627 12.1962 36.6773 17.3132 36.7729C13.3111 39.9405 8.26863 41.8288 2.79004 41.8288C1.846 41.8288 0.915307 41.7728 0.000427246 41.6638C5.17554 45.0149 11.3223 46.9703 17.9262 46.9703C39.436 46.9703 51.1981 28.9729 51.1981 13.3653C51.1981 12.853 51.1869 12.3436 51.1642 11.8372C53.4536 10.1656 55.4296 8.09524 56.9995 5.72317Z" fill="#55ACEE"/>
</g>
<defs>
<clipPath id="clip0_19378_919">
<rect width="57" height="47" fill="white"/>
</clipPath>
</defs>
</svg>
